<?xml version="1.0" standalone="no"?><!DOCTYPE svg PUBLIC "-//W3C//DTD SVG 1.1//EN" "http://www.w3.org/Graphics/SVG/1.1/DTD/svg11.dtd"><svg height="1024" node-id="1" sillyvg="true" template-height="1024" template-width="1024" version="1.1" viewBox="0 0 1024 1024" width="1024" xmlns="http://www.w3.org/2000/svg" xmlns:xlink="http://www.w3.org/1999/xlink"><defs node-id="84"></defs><path d="M 0.00 0.00 L 1024.00 0.00 L 1024.00 1024.00 L 0.00 1024.00 Z" fill="#ffffff" fill-rule="nonzero" node-id="86" stroke="none" target-height="1024" target-width="1024" target-x="0" target-y="0"></path><path d="M 472.50 348.80 L 479.00 346.30 L 485.70 344.30 L 492.40 342.80 L 499.30 341.90 L 506.20 341.50 L 513.10 341.60 L 520.00 342.10 L 526.90 343.20 L 533.80 344.60 L 540.50 346.50 L 547.00 348.80 L 553.40 351.40 L 560.90 355.30 L 568.20 359.60 L 596.40 378.10 L 595.70 382.90 L 595.60 387.70 L 596.00 392.60 L 597.10 397.40 L 598.60 402.00 L 600.60 406.40 L 603.10 410.60 L 606.00 414.50 L 609.30 417.90 L 612.90 420.90 L 616.90 423.40 L 621.30 425.40 L 624.60 426.40 L 628.20 427.00 L 631.90 427.20 L 635.80 427.00 L 639.70 426.40 L 643.30 425.40 L 646.60 423.90 L 649.60 422.10 L 653.30 419.10 L 656.60 415.60 L 659.40 411.60 L 661.90 407.30 L 663.90 402.80 L 665.60 398.10 L 666.90 393.20 L 668.30 383.70 L 675.70 391.30 L 682.90 399.10 L 696.80 415.10 L 684.00 416.30 L 675.60 417.90 L 669.20 420.60 L 666.80 422.10 L 662.10 426.20 L 657.70 431.50 L 655.90 434.50 L 653.30 440.80 L 652.60 444.20 L 652.30 447.50 L 652.40 450.80 L 653.00 454.10 L 654.20 457.30 L 655.90 460.40 L 659.00 464.00 L 662.40 467.00 L 666.00 469.70 L 669.90 471.90 L 678.20 475.60 L 684.80 477.70 L 704.70 483.40 L 697.80 489.40 L 690.70 495.00 L 683.30 500.30 L 675.60 505.10 L 659.60 513.70 L 642.90 521.00 L 631.50 525.10 L 619.90 528.70 L 608.20 531.90 L 595.20 534.70 L 582.10 537.10 L 568.90 539.10 L 555.70 540.60 L 542.40 541.80 L 529.10 542.40 L 515.80 542.70 L 502.50 542.50 L 489.20 541.90 L 475.90 540.80 L 462.70 539.20 L 449.50 537.30 L 426.70 533.00 L 403.90 527.40 L 392.70 523.90 L 381.70 520.00 L 370.80 515.60 L 360.30 510.70 L 350.10 505.20 L 342.60 500.70 L 335.40 495.80 L 328.40 490.50 L 321.60 484.90 L 336.20 483.20 L 343.50 482.00 L 355.50 479.10 L 364.60 475.50 L 368.90 473.30 L 373.00 470.60 L 376.90 467.50 L 380.50 463.70 L 383.10 459.00 L 384.40 453.90 L 384.70 451.30 L 384.10 446.10 L 382.20 441.30 L 380.70 439.00 L 371.00 427.80 L 368.10 423.80 L 364.80 418.20 L 363.50 415.10 L 367.40 413.80 L 370.40 417.00 L 373.60 419.80 L 377.10 422.40 L 380.90 424.60 L 384.80 426.40 L 388.80 427.80 L 393.00 428.80 L 397.20 429.30 L 401.50 429.40 L 405.70 428.90 L 409.90 427.90 L 414.10 426.30 L 420.80 422.90 L 426.50 418.30 L 429.70 414.60 L 432.40 410.60 L 434.60 406.30 L 436.40 401.70 L 437.70 396.90 L 438.50 392.00 L 438.70 387.10 L 438.50 382.20 L 437.80 377.30 L 448.30 366.50 L 453.80 361.30 L 459.60 356.50 L 463.60 353.60 L 467.90 351.10 L 472.50 348.80 Z M 490.20 432.50 L 491.90 435.90 L 494.10 438.90 L 496.50 441.80 L 504.60 449.70 L 509.40 455.40 L 509.30 458.00 L 507.90 462.50 L 506.80 464.50 L 504.80 466.90 L 502.50 469.00 L 499.80 470.80 L 496.80 472.30 L 490.50 474.20 L 487.20 474.70 L 481.00 474.70 L 476.10 473.50 L 474.00 472.40 L 471.10 470.40 L 468.50 467.90 L 458.90 456.80 L 458.60 464.90 L 460.20 468.20 L 462.00 471.00 L 464.20 473.40 L 466.50 475.50 L 472.00 478.80 L 478.10 480.70 L 482.40 481.30 L 486.80 481.30 L 491.20 480.90 L 495.60 479.90 L 499.80 478.40 L 503.80 476.40 L 507.50 474.00 L 510.80 471.10 L 513.70 467.70 L 516.30 470.70 L 522.20 475.80 L 525.60 477.90 L 529.10 479.60 L 532.70 480.90 L 536.50 481.70 L 540.40 482.10 L 547.80 481.80 L 551.30 481.10 L 554.80 480.00 L 558.10 478.50 L 561.20 476.70 L 564.10 474.50 L 566.60 471.90 L 568.60 469.10 L 570.10 466.10 L 570.90 463.70 L 571.30 461.10 L 571.30 458.40 L 570.80 455.60 L 562.20 466.40 L 559.00 469.60 L 556.60 471.50 L 554.00 472.90 L 547.70 474.90 L 544.40 475.40 L 541.00 475.40 L 537.70 475.00 L 534.40 474.10 L 528.20 471.30 L 525.50 469.40 L 523.00 467.10 L 520.70 464.60 L 518.90 461.80 L 517.40 458.70 L 517.90 456.60 L 519.80 452.70 L 521.80 450.10 L 528.80 442.80 L 530.90 440.30 L 532.50 437.60 L 533.60 433.80 L 533.70 431.60 L 524.30 429.40 L 514.40 428.60 L 504.50 429.20 L 499.60 430.00 L 490.20 432.50 Z" fill="#fdfdfd" fill-rule="nonzero" node-id="88" stroke="none" target-height="201.20001" target-width="383.1" target-x="321.6" target-y="341.5"></path><path d="M 437.20 580.20 L 448.20 577.60 L 459.20 575.40 L 470.40 573.80 L 492.80 571.50 L 521.10 570.20 L 538.00 569.90 L 557.90 570.00 L 577.90 571.20 L 587.80 572.50 L 597.50 574.40 L 603.90 576.00 L 610.30 578.00 L 621.90 582.80 L 627.40 585.80 L 634.20 590.70 L 640.30 596.50 L 642.70 599.70 L 644.80 603.10 L 646.50 606.60 L 647.60 610.30 L 648.20 614.20 L 647.80 620.10 L 647.00 623.20 L 645.70 626.50 L 641.70 634.40 L 637.20 642.00 L 632.50 649.40 L 624.80 660.20 L 600.40 691.60 L 592.40 702.30 L 579.20 721.10 L 569.20 734.10 L 560.20 743.70 L 555.40 748.00 L 550.20 751.90 L 544.60 755.40 L 540.90 757.00 L 537.10 758.30 L 529.50 759.80 L 524.20 760.00 L 519.10 759.60 L 513.90 758.70 L 508.90 757.20 L 504.00 755.30 L 499.40 752.80 L 495.00 749.90 L 490.90 746.60 L 480.90 735.60 L 474.80 728.30 L 443.30 686.00 L 416.00 652.20 L 410.10 644.50 L 403.10 633.70 L 398.30 624.30 L 396.50 617.40 L 396.40 611.90 L 396.90 609.30 L 397.90 606.70 L 399.40 604.30 L 402.70 600.30 L 406.20 596.70 L 410.10 593.50 L 414.20 590.70 L 423.10 585.80 L 430.10 582.70 L 437.20 580.20 Z" fill="#fdfdfd" fill-rule="nonzero" node-id="90" stroke="none" target-height="190.09998" target-width="251.80002" target-x="396.4" target-y="569.9"></path><path d="M 427.40 881.80 L 429.10 880.20 L 431.70 881.70 L 431.40 884.60 L 428.60 885.70 L 427.40 881.80 Z" fill="#fdfdfd" fill-rule="nonzero" node-id="92" stroke="none" target-height="5.5" target-width="4.3000183" target-x="427.4" target-y="880.2"></path><path d="M 425.60 894.00 L 425.20 892.90 L 425.40 891.00 L 426.30 889.90 L 427.60 888.90 L 430.90 888.10 L 432.50 888.30 L 433.80 889.10 L 434.40 890.20 L 434.30 892.20 L 433.40 893.40 L 432.00 894.40 L 430.40 895.10 L 428.60 895.30 L 427.40 895.10 L 425.60 894.00 Z" fill="#fdfdfd" fill-rule="nonzero" node-id="94" stroke="none" target-height="7.200012" target-width="9.199982" target-x="425.2" target-y="888.1"></path><path d="M 532.70 902.90 L 533.00 901.70 L 534.30 900.30 L 535.70 899.80 L 537.50 899.90 L 539.10 900.30 L 540.70 901.20 L 541.90 902.40 L 542.50 903.80 L 542.10 905.00 L 540.70 906.40 L 539.20 906.90 L 537.50 906.90 L 535.80 906.40 L 534.30 905.60 L 533.20 904.40 L 532.70 902.90 Z" fill="#fdfdfd" fill-rule="nonzero" node-id="96" stroke="none" target-height="7.1000366" target-width="9.799988" target-x="532.7" target-y="899.8"></path><path d="M 695.00 154.90 L 703.60 144.50 L 713.00 134.90 L 707.90 143.70 L 702.30 152.20 L 696.20 160.30 L 689.70 168.10 L 683.00 175.70 L 675.80 183.00 L 664.80 193.60 L 653.50 203.70 L 649.00 205.20 L 680.40 172.30 L 687.80 163.80 L 695.00 154.90 Z" fill="#351a22" fill-rule="nonzero" node-id="98" stroke="none" target-height="70.3" target-width="64" target-x="649" target-y="134.9"></path><path d="M 634.40 867.60 L 637.60 873.70 L 638.70 877.10 L 646.60 877.10 L 644.60 882.60 L 637.40 880.90 L 637.10 886.80 L 637.30 889.90 L 637.80 892.60 L 639.50 895.50 L 640.80 896.50 L 642.30 897.10 L 644.40 897.30 L 647.10 896.90 L 646.20 898.70 L 645.10 899.80 L 643.80 900.60 L 642.30 900.90 L 639.00 900.70 L 636.60 899.80 L 634.60 898.40 L 633.50 896.50 L 632.90 894.30 L 632.40 887.10 L 632.20 885.00 L 631.50 883.00 L 630.40 881.50 L 629.40 880.80 L 625.90 880.00 L 631.60 877.10 L 634.40 867.60 Z" fill="#351a22" fill-rule="nonzero" node-id="100" stroke="none" target-height="33.30005" target-width="21.199951" target-x="625.9" target-y="867.6"></path><path d="M 649.50 364.70 L 651.40 364.40 L 654.50 364.90 L 657.00 366.60 L 657.90 367.90 L 658.90 370.00 L 659.30 372.40 L 659.20 374.80 L 658.50 377.10 L 656.50 379.60 L 655.00 380.70 L 653.00 380.60 L 651.20 380.00 L 648.20 377.70 L 646.30 374.40 L 645.80 372.60 L 646.00 369.00 L 646.60 367.30 L 647.80 365.90 L 649.50 364.70 Z" fill="#ffffff" fill-rule="nonzero" node-id="102" stroke="none" target-height="16.300018" target-width="13.5" target-x="645.8" target-y="364.4"></path><path d="M 600.90 882.50 L 602.00 880.60 L 603.30 879.20 L 604.80 878.20 L 608.30 877.20 L 613.20 877.40 L 616.20 878.10 L 621.60 880.00 L 621.60 882.30 L 622.70 893.30 L 622.30 897.30 L 621.00 899.70 L 619.90 900.50 L 618.50 901.10 L 616.50 901.30 L 616.10 891.20 L 615.70 886.20 L 614.90 881.30 L 600.90 882.50 Z" fill="#341922" fill-rule="nonzero" node-id="104" stroke="none" target-height="24.099976" target-width="21.799988" target-x="600.9" target-y="877.2"></path><path d="M 316.60 134.80 L 346.80 169.70 L 370.20 194.20 L 378.00 203.80 L 368.80 196.80 L 360.00 189.40 L 351.60 181.60 L 343.50 173.30 L 335.80 164.70 L 328.50 155.70 L 321.70 146.50 L 315.20 136.90 L 316.60 134.80 Z" fill="#311922" fill-rule="nonzero" node-id="106" stroke="none" target-height="69" target-width="62.799988" target-x="315.2" target-y="134.8"></path><path d="M 463.50 866.10 L 464.40 865.10 L 466.60 864.10 L 468.40 864.20 L 470.20 864.80 L 471.30 865.50 L 472.50 867.20 L 472.70 868.30 L 472.40 869.40 L 471.50 870.70 L 469.70 872.00 L 466.80 872.10 L 465.10 871.50 L 463.80 870.60 L 462.90 869.30 L 462.90 867.30 L 463.50 866.10 Z" fill="#311922" fill-rule="nonzero" node-id="108" stroke="none" target-height="8" target-width="9.800018" target-x="462.9" target-y="864.1"></path><path d="M 481.40 868.30 L 484.20 867.70 L 485.90 867.80 L 486.90 868.30 L 487.50 869.20 L 487.60 870.70 L 487.10 873.20 L 484.30 873.70 L 482.60 873.60 L 481.60 873.00 L 481.00 872.10 L 480.90 870.60 L 481.40 868.30 Z" fill="#311922" fill-rule="nonzero" node-id="110" stroke="none" target-height="6" target-width="6.700012" target-x="480.9" target-y="867.7"></path><path d="M 381.90 876.50 L 413.10 876.50 L 414.10 891.90 L 414.00 899.60 L 409.10 897.50 L 409.00 887.70 L 408.30 883.10 L 406.90 881.10 L 404.70 880.20 L 400.80 880.90 L 400.20 885.00 L 400.50 894.30 L 400.00 896.20 L 399.00 897.80 L 398.10 898.50 L 395.00 899.30 L 395.20 881.80 L 386.20 880.00 L 385.50 897.30 L 380.70 897.10 L 381.90 876.50 Z" fill="#311922" fill-rule="nonzero" node-id="112" stroke="none" target-height="23.099976" target-width="33.399994" target-x="380.7" target-y="876.5"></path><path d="M 423.00 878.50 L 427.60 877.50 L 432.30 877.10 L 434.70 877.40 L 437.00 878.20 L 438.10 880.30 L 439.40 884.60 L 439.80 898.70 L 426.80 898.50 L 422.60 898.10 L 420.70 895.30 L 420.40 893.80 L 420.40 891.30 L 422.90 880.90 L 423.00 878.50 Z M 427.40 881.80 L 428.60 885.70 L 431.40 884.60 L 431.70 881.70 L 429.10 880.20 L 427.40 881.80 Z M 425.60 894.00 L 427.40 895.10 L 428.60 895.30 L 430.40 895.10 L 432.00 894.40 L 433.40 893.40 L 434.30 892.20 L 434.40 890.20 L 433.80 889.10 L 432.50 888.30 L 430.90 888.10 L 427.60 888.90 L 426.30 889.90 L 425.40 891.00 L 425.20 892.90 L 425.60 894.00 Z" fill="#311922" fill-rule="nonzero" node-id="114" stroke="none" target-height="21.600037" target-width="19.399994" target-x="420.4" target-y="877.1"></path><path d="M 529.30 881.10 L 531.30 878.70 L 534.60 877.40 L 546.40 877.40 L 546.80 880.10 L 546.70 885.40 L 545.40 890.60 L 544.30 893.20 L 541.80 889.50 L 540.80 887.50 L 540.50 885.40 L 540.70 884.10 L 541.40 882.70 L 542.80 881.30 L 540.10 881.00 L 538.00 881.10 L 536.20 881.70 L 534.80 882.60 L 533.60 883.90 L 532.70 885.60 L 532.00 888.00 L 535.20 889.90 L 540.70 895.00 L 542.30 895.90 L 545.60 896.70 L 546.70 897.40 L 547.50 898.30 L 548.30 900.20 L 548.60 902.40 L 548.30 904.50 L 546.80 908.00 L 544.40 910.30 L 542.10 911.40 L 539.60 911.90 L 537.00 911.90 L 534.40 911.40 L 531.90 910.40 L 529.80 909.00 L 529.20 895.10 L 529.30 881.10 Z M 532.70 902.90 L 533.20 904.40 L 534.30 905.60 L 535.80 906.40 L 537.50 906.90 L 539.20 906.90 L 540.70 906.40 L 542.10 905.00 L 542.50 903.80 L 541.90 902.40 L 540.70 901.20 L 539.10 900.30 L 537.50 899.90 L 535.70 899.80 L 534.30 900.30 L 533.00 901.70 L 532.70 902.90 Z" fill="#311922" fill-rule="nonzero" node-id="116" stroke="none" target-height="34.5" target-width="19.399963" target-x="529.2" target-y="877.4"></path><path d="M 480.90 877.70 L 486.40 878.50 L 486.10 899.20 L 480.70 898.40 L 480.90 877.70 Z" fill="#311922" fill-rule="nonzero" node-id="118" stroke="none" target-height="21.5" target-width="5.6999817" target-x="480.7" target-y="877.7"></path><path d="M 598.60 893.40 L 599.00 890.40 L 601.10 888.00 L 610.90 883.30 L 604.40 894.30 L 613.10 900.80 L 610.90 901.40 L 608.90 901.60 L 606.80 901.40 L 604.80 900.80 L 601.50 898.60 L 600.20 897.10 L 598.60 893.40 Z" fill="#311922" fill-rule="nonzero" node-id="120" stroke="none" target-height="18.299988" target-width="14.5" target-x="598.6" target-y="883.3"></path><path d="M 374.40 367.10 L 375.80 366.00 L 377.50 365.20 L 379.40 364.90 L 381.30 365.00 L 383.10 365.50 L 384.50 366.50 L 385.70 368.50 L 386.20 372.30 L 385.90 376.90 L 384.20 381.30 L 382.80 383.10 L 381.20 384.60 L 379.20 385.70 L 376.80 386.40 L 374.40 385.80 L 372.50 384.90 L 371.10 383.50 L 370.00 381.90 L 369.30 380.00 L 369.00 378.00 L 369.40 373.80 L 371.20 369.90 L 372.60 368.40 L 374.40 367.10 Z" fill="#fffffe" fill-rule="nonzero" node-id="122" stroke="none" target-height="21.5" target-width="17.200012" target-x="369" target-y="364.9"></path><path d="M 286.30 139.90 L 288.40 134.90 L 292.90 126.30 L 297.40 120.20 L 300.10 117.60 L 302.90 115.40 L 306.10 113.70 L 308.60 112.80 L 311.20 112.20 L 314.20 112.00 L 317.30 112.20 L 325.30 113.60 L 333.10 115.40 L 340.50 117.90 L 355.10 124.00 L 372.50 133.50 L 403.20 152.50 L 413.60 158.50 L 424.10 164.00 L 434.40 160.20 L 444.80 156.90 L 455.40 154.10 L 466.10 151.70 L 477.00 149.70 L 487.80 148.20 L 498.70 147.20 L 509.70 146.70 L 520.70 146.60 L 531.70 147.00 L 542.60 148.00 L 553.50 149.40 L 564.30 151.20 L 575.00 153.60 L 585.50 156.60 L 607.40 164.00 L 610.40 164.60 L 613.40 164.90 L 652.80 136.90 L 663.00 130.30 L 673.40 124.30 L 680.50 120.70 L 687.90 117.40 L 695.40 114.50 L 700.70 113.10 L 706.30 112.20 L 710.10 112.00 L 713.80 112.20 L 717.40 112.80 L 722.50 114.70 L 727.10 118.00 L 729.60 120.70 L 733.80 126.60 L 736.40 131.40 L 738.70 136.40 L 742.60 146.60 L 745.80 157.60 L 748.40 168.70 L 750.50 179.90 L 752.00 191.20 L 753.10 202.60 L 753.60 213.90 L 753.70 225.30 L 753.40 236.80 L 752.50 248.20 L 751.30 259.50 L 749.70 270.80 L 747.70 282.00 L 754.90 296.40 L 761.70 310.90 L 766.00 320.80 L 769.90 330.80 L 773.30 340.90 L 776.30 351.10 L 778.70 361.60 L 780.50 372.20 L 798.90 369.30 L 805.00 368.60 L 809.10 368.50 L 813.20 368.80 L 817.30 369.50 L 815.90 372.00 L 814.30 374.00 L 812.50 375.60 L 808.10 377.90 L 801.60 379.50 L 785.20 380.90 L 781.50 381.60 L 782.20 397.70 L 782.20 414.00 L 823.10 410.40 L 831.30 410.10 L 839.40 410.20 L 847.60 410.90 L 847.90 418.90 L 825.50 420.90 L 780.50 423.30 L 779.10 432.70 L 777.30 442.00 L 775.00 451.20 L 800.10 453.90 L 816.80 456.70 L 825.00 458.60 L 823.70 466.70 L 789.20 461.20 L 771.90 459.30 L 763.90 475.30 L 759.40 483.10 L 754.50 490.60 L 758.30 491.90 L 770.70 495.00 L 774.70 496.30 L 778.20 498.10 L 780.40 499.60 L 782.20 501.50 L 783.80 503.80 L 779.80 504.00 L 772.00 503.10 L 766.20 501.80 L 749.20 496.40 L 742.50 503.60 L 728.40 517.20 L 720.90 523.50 L 713.10 529.50 L 705.10 535.10 L 709.10 542.30 L 722.10 563.80 L 730.10 578.40 L 722.80 573.80 L 714.90 570.40 L 719.00 579.70 L 720.80 584.50 L 722.10 589.40 L 722.90 596.10 L 722.80 599.50 L 700.00 555.50 L 692.10 541.00 L 680.10 545.00 L 667.80 548.40 L 655.50 551.20 L 643.00 553.50 L 630.50 555.40 L 617.90 556.80 L 592.50 558.50 L 579.90 558.80 L 572.60 558.20 L 591.30 555.30 L 610.00 551.90 L 623.40 549.00 L 645.80 542.90 L 663.40 536.90 L 672.00 533.40 L 680.30 529.50 L 688.50 525.20 L 696.40 520.50 L 703.90 515.40 L 711.20 509.80 L 716.30 505.20 L 725.90 495.20 L 730.30 489.70 L 718.40 486.10 L 712.60 483.90 L 707.00 481.20 L 710.70 481.10 L 726.10 483.00 L 729.90 483.10 L 734.70 482.20 L 737.10 481.20 L 743.40 470.50 L 749.10 459.50 L 749.30 457.70 L 716.90 455.40 L 716.70 449.80 L 753.00 450.20 L 760.70 425.50 L 748.30 426.80 L 713.10 431.60 L 707.80 426.00 L 725.20 421.80 L 760.60 415.70 L 763.20 386.30 L 729.90 393.30 L 718.70 394.80 L 713.10 395.10 L 714.20 393.10 L 717.00 390.00 L 720.70 387.80 L 761.70 376.30 L 760.00 366.70 L 757.80 357.30 L 755.10 348.10 L 750.50 334.40 L 745.30 320.80 L 732.80 290.90 L 731.90 287.80 L 731.40 284.50 L 731.00 279.60 L 731.20 274.70 L 735.30 246.10 L 736.40 227.10 L 736.40 217.60 L 735.20 198.60 L 732.50 179.70 L 728.40 161.20 L 725.80 152.10 L 722.70 143.90 L 715.70 128.00 L 712.50 124.40 L 702.90 126.90 L 698.40 128.70 L 691.80 131.90 L 685.40 135.60 L 679.20 139.70 L 653.90 158.10 L 632.00 174.90 L 624.40 180.10 L 616.60 184.90 L 609.80 183.90 L 579.40 174.00 L 570.70 171.70 L 560.50 169.50 L 550.30 167.80 L 540.00 166.40 L 522.90 165.40 L 501.50 165.80 L 488.70 166.60 L 464.90 169.20 L 448.10 172.20 L 439.30 174.50 L 427.70 178.10 L 418.50 181.40 L 416.40 181.80 L 412.40 181.40 L 399.00 173.20 L 346.30 138.80 L 332.80 130.70 L 324.30 126.50 L 318.20 124.40 L 315.20 124.10 L 313.30 124.20 L 309.20 125.80 L 305.70 134.90 L 302.60 144.00 L 299.80 153.30 L 297.50 162.70 L 295.60 172.30 L 293.80 184.30 L 292.60 196.40 L 292.00 208.50 L 292.10 220.70 L 292.80 232.80 L 294.10 244.90 L 296.00 256.80 L 299.20 272.00 L 299.40 278.30 L 298.70 283.10 L 296.10 292.30 L 285.70 317.30 L 281.20 328.90 L 277.20 340.60 L 273.60 352.50 L 270.60 364.60 L 268.20 376.80 L 274.70 379.00 L 301.60 386.30 L 308.00 388.80 L 312.10 390.80 L 316.00 393.20 L 319.70 396.00 L 313.70 395.70 L 301.80 394.10 L 293.00 392.30 L 266.70 385.80 L 266.30 405.90 L 266.60 416.00 L 305.50 422.40 L 314.00 423.30 L 310.60 430.60 L 295.90 428.60 L 281.20 427.00 L 266.50 426.00 L 273.10 449.50 L 294.10 450.00 L 302.90 450.80 L 303.90 455.00 L 276.80 458.00 L 287.90 477.10 L 292.90 484.70 L 304.80 483.60 L 316.70 482.10 L 319.30 483.60 L 304.40 488.40 L 296.80 490.40 L 301.50 496.40 L 306.50 502.10 L 311.80 507.50 L 317.40 512.50 L 329.40 521.60 L 342.30 529.50 L 351.30 534.10 L 360.50 538.20 L 370.00 541.80 L 379.70 545.00 L 389.40 547.80 L 405.60 551.40 L 425.10 554.70 L 431.60 556.10 L 437.90 558.00 L 426.60 558.80 L 415.30 559.20 L 403.90 559.00 L 386.90 557.60 L 370.10 554.80 L 361.80 552.80 L 353.70 550.30 L 345.70 547.40 L 337.80 544.10 L 328.80 563.90 L 319.10 583.50 L 311.80 596.80 L 305.00 610.40 L 296.90 628.90 L 293.20 638.40 L 290.80 645.90 L 286.90 661.10 L 284.60 672.60 L 278.80 707.50 L 277.80 719.50 L 278.10 731.80 L 279.80 743.90 L 281.30 749.80 L 283.20 755.50 L 285.70 761.00 L 287.80 764.90 L 293.10 772.40 L 300.00 779.60 L 304.00 782.80 L 308.20 785.70 L 312.60 788.30 L 318.80 791.10 L 325.20 793.50 L 331.80 795.50 L 342.00 797.70 L 352.30 799.30 L 372.80 801.60 L 369.20 782.40 L 363.20 758.70 L 355.50 730.20 L 350.20 706.40 L 348.60 696.80 L 347.00 679.80 L 347.10 665.10 L 347.70 657.60 L 349.40 666.90 L 353.90 685.20 L 358.10 698.70 L 376.50 752.00 L 380.50 765.50 L 382.90 774.60 L 388.20 801.00 L 389.50 804.90 L 391.20 808.50 L 392.70 810.70 L 396.60 814.50 L 400.10 816.80 L 403.70 818.70 L 407.60 820.20 L 411.70 821.30 L 415.80 822.00 L 420.00 822.30 L 424.20 822.20 L 428.30 821.70 L 432.40 820.80 L 436.40 819.40 L 440.20 817.70 L 443.80 815.60 L 446.60 813.20 L 448.90 810.50 L 450.80 807.50 L 453.30 800.90 L 454.80 792.00 L 454.90 777.80 L 453.50 760.20 L 452.20 751.40 L 449.90 739.80 L 447.00 728.40 L 443.60 717.10 L 439.60 705.90 L 435.20 695.00 L 430.30 684.20 L 436.10 690.20 L 441.30 696.40 L 446.00 703.00 L 450.30 709.90 L 454.10 717.10 L 457.50 724.40 L 460.40 732.00 L 462.90 739.90 L 465.00 747.80 L 466.70 755.90 L 467.90 764.00 L 468.80 772.20 L 469.40 783.20 L 469.40 794.00 L 468.70 804.70 L 487.10 806.30 L 505.50 807.50 L 530.00 808.00 L 542.20 807.80 L 554.50 807.20 L 566.70 806.10 L 578.90 804.50 L 577.90 797.10 L 577.30 789.70 L 577.20 782.30 L 577.50 775.00 L 578.50 765.20 L 580.10 755.40 L 582.40 745.80 L 585.10 736.30 L 588.30 726.90 L 591.90 717.70 L 594.50 712.40 L 600.80 702.40 L 604.50 697.80 L 608.50 693.40 L 612.70 689.30 L 617.20 685.50 L 622.10 682.00 L 616.50 692.10 L 611.40 702.40 L 606.90 713.00 L 603.80 721.10 L 598.90 737.70 L 595.50 754.60 L 594.30 763.10 L 593.60 771.70 L 593.40 780.40 L 593.60 786.40 L 594.40 792.50 L 595.30 796.50 L 598.30 804.00 L 600.40 807.50 L 602.90 810.60 L 605.90 813.50 L 608.60 815.60 L 614.20 818.60 L 617.20 819.50 L 621.40 820.30 L 625.60 820.60 L 629.90 820.40 L 634.20 819.60 L 638.30 818.50 L 642.50 816.90 L 646.40 814.90 L 650.10 812.50 L 653.50 809.80 L 656.60 806.80 L 659.30 803.60 L 661.60 800.10 L 663.30 790.00 L 667.70 769.90 L 671.60 754.90 L 684.50 710.40 L 688.70 695.50 L 692.40 680.60 L 696.30 660.40 L 697.70 650.10 L 698.80 656.90 L 699.80 670.50 L 699.30 686.40 L 698.40 695.40 L 694.80 717.90 L 689.30 744.90 L 685.00 768.90 L 680.10 801.00 L 686.80 799.50 L 693.10 797.50 L 699.30 795.00 L 705.10 791.90 L 710.70 788.40 L 716.00 784.50 L 721.00 780.10 L 725.70 775.40 L 730.10 770.30 L 734.10 765.00 L 737.70 759.40 L 741.00 753.50 L 743.90 747.40 L 746.40 741.20 L 748.40 734.80 L 750.00 728.30 L 751.20 721.70 L 751.80 715.10 L 752.00 708.40 L 750.20 680.60 L 753.60 684.90 L 756.30 690.90 L 760.40 710.60 L 761.80 714.40 L 763.70 718.00 L 764.50 697.20 L 765.20 690.30 L 765.90 685.80 L 767.10 681.30 L 768.70 676.90 L 769.30 681.30 L 769.80 703.30 L 769.70 710.60 L 768.90 719.10 L 767.60 727.60 L 764.00 744.30 L 755.20 764.30 L 778.30 769.10 L 789.90 771.00 L 825.10 775.80 L 813.30 774.90 L 801.50 773.60 L 789.80 772.00 L 778.10 769.90 L 755.00 764.80 L 745.80 778.20 L 753.60 779.60 L 761.30 781.50 L 771.20 785.00 L 776.00 787.30 L 769.50 789.80 L 761.00 791.10 L 740.30 791.50 L 735.10 792.00 L 729.60 795.30 L 713.30 806.20 L 705.60 810.20 L 696.90 813.30 L 692.20 814.30 L 677.80 816.70 L 670.10 818.60 L 667.10 819.80 L 659.60 823.70 L 650.20 827.40 L 642.80 829.40 L 635.30 830.70 L 628.60 831.40 L 621.80 831.60 L 617.30 831.40 L 612.90 830.70 L 608.50 829.60 L 595.70 824.40 L 591.30 823.10 L 585.20 822.40 L 550.50 824.80 L 534.70 825.60 L 476.10 826.90 L 461.90 828.20 L 444.70 830.80 L 427.40 832.70 L 413.60 833.00 L 406.80 832.70 L 400.00 831.80 L 393.20 830.50 L 382.80 823.10 L 379.10 821.00 L 376.60 819.90 L 373.90 819.20 L 360.60 818.00 L 339.90 815.10 L 329.70 813.00 L 319.60 810.30 L 302.80 804.80 L 295.90 803.10 L 267.60 798.50 L 260.60 797.00 L 253.70 794.80 L 256.90 793.30 L 263.30 791.30 L 268.40 790.60 L 283.80 789.80 L 277.30 781.80 L 271.20 773.50 L 268.10 766.60 L 265.50 759.60 L 263.30 752.40 L 260.00 737.10 L 259.80 724.80 L 260.20 712.50 L 260.80 704.40 L 261.70 696.20 L 263.80 682.80 L 265.60 673.00 L 267.80 663.40 L 270.50 653.90 L 273.50 644.60 L 277.90 632.30 L 282.90 620.20 L 288.40 608.20 L 300.30 584.80 L 326.20 539.10 L 314.40 531.90 L 308.80 527.80 L 300.80 521.30 L 293.20 514.20 L 278.80 499.30 L 263.80 502.60 L 258.80 503.50 L 253.80 503.80 L 248.60 503.60 L 251.60 500.10 L 256.40 497.40 L 269.70 493.40 L 272.80 492.30 L 269.30 487.10 L 263.00 476.40 L 255.00 459.60 L 246.30 460.20 L 211.80 464.90 L 203.10 465.20 L 204.00 461.40 L 204.90 459.70 L 206.20 458.40 L 208.40 457.30 L 220.30 455.20 L 230.80 453.80 L 252.10 452.30 L 249.00 438.00 L 246.90 423.50 L 181.00 417.90 L 181.00 410.50 L 189.20 409.80 L 197.30 409.80 L 205.40 410.20 L 237.90 413.70 L 246.00 414.30 L 246.50 397.60 L 247.50 381.00 L 225.60 377.90 L 218.40 376.60 L 209.10 374.00 L 204.50 372.20 L 204.10 365.50 L 211.90 366.00 L 242.70 371.10 L 250.50 371.80 L 252.40 361.40 L 254.80 351.00 L 257.60 340.70 L 260.80 330.50 L 264.50 320.50 L 268.60 310.60 L 273.20 301.00 L 278.40 291.70 L 284.00 282.60 L 281.20 270.90 L 278.80 259.10 L 276.90 247.10 L 275.50 235.10 L 274.60 223.00 L 274.30 210.90 L 275.00 192.80 L 277.10 174.90 L 278.80 166.00 L 280.80 157.30 L 283.40 148.60 L 286.30 139.90 Z" fill="#321922" fill-rule="nonzero" node-id="124" stroke="none" target-height="721" target-width="666.9" target-x="181" target-y="112"></path><path d="M 564.40 887.50 L 564.10 884.70 L 564.40 882.00 L 565.20 879.50 L 566.40 877.20 L 568.00 875.20 L 570.00 873.40 L 574.60 870.70 L 579.80 869.40 L 582.40 869.40 L 584.90 869.80 L 587.40 870.70 L 589.60 872.10 L 591.70 874.20 L 581.00 874.20 L 578.40 874.40 L 576.00 875.10 L 573.30 877.00 L 572.20 878.50 L 571.10 880.10 L 570.00 883.50 L 570.10 887.10 L 571.40 890.60 L 573.80 893.40 L 575.30 894.40 L 578.90 895.40 L 592.20 894.90 L 590.70 896.90 L 588.90 898.40 L 586.90 899.50 L 582.40 900.60 L 580.00 900.60 L 575.10 899.60 L 572.80 898.60 L 570.70 897.40 L 567.10 894.10 L 565.80 892.20 L 564.90 890.00 L 564.40 887.50 Z" fill="#321922" fill-rule="nonzero" node-id="126" stroke="none" target-height="31.199951" target-width="28.100037" target-x="564.1" target-y="869.4"></path><path d="M 301.90 184.70 L 305.00 160.90 L 306.20 155.00 L 307.90 149.40 L 309.40 145.80 L 311.40 142.40 L 313.80 139.10 L 310.90 154.20 L 308.50 169.60 L 307.30 180.00 L 306.60 190.30 L 306.30 200.70 L 306.50 211.10 L 307.30 221.30 L 308.70 231.50 L 310.20 239.10 L 312.10 246.60 L 314.50 253.90 L 317.30 261.30 L 313.20 267.60 L 307.40 249.70 L 305.00 240.60 L 303.00 231.40 L 301.50 222.10 L 300.60 212.80 L 300.30 205.80 L 300.40 198.80 L 300.90 191.80 L 301.90 184.70 Z" fill="#c0794d" fill-rule="nonzero" node-id="128" stroke="none" target-height="128.5" target-width="17" target-x="300.3" target-y="139.1"></path><path d="M 309.20 125.80 L 313.30 124.20 L 315.20 124.10 L 318.20 124.40 L 324.30 126.50 L 332.80 130.70 L 346.30 138.80 L 399.00 173.20 L 412.40 181.40 L 416.40 181.80 L 421.50 180.50 L 427.70 178.10 L 430.60 177.30 L 433.70 177.80 L 434.80 188.60 L 436.20 199.50 L 437.50 206.70 L 439.20 213.70 L 443.10 225.80 L 447.90 235.50 L 450.80 240.20 L 455.10 244.00 L 457.50 245.70 L 461.80 247.50 L 465.70 247.60 L 467.90 247.10 L 469.70 246.20 L 471.30 245.00 L 473.30 242.70 L 475.00 239.90 L 477.70 234.20 L 480.50 226.00 L 482.80 217.80 L 484.80 209.40 L 486.30 200.90 L 488.30 183.80 L 488.70 166.60 L 501.50 165.80 L 514.40 165.40 L 531.50 165.80 L 540.00 166.40 L 540.60 178.80 L 541.70 191.30 L 542.90 199.50 L 544.50 207.60 L 548.40 221.60 L 553.20 233.10 L 557.80 241.50 L 560.00 244.00 L 562.50 246.10 L 565.40 247.60 L 569.50 248.60 L 573.70 248.20 L 575.70 247.40 L 577.80 246.10 L 581.60 241.40 L 584.80 236.40 L 587.40 231.30 L 589.60 225.90 L 591.40 220.30 L 592.80 214.60 L 594.40 206.00 L 595.50 197.10 L 596.70 179.60 L 609.80 183.90 L 616.60 184.90 L 624.40 180.10 L 632.00 174.90 L 653.90 158.10 L 679.20 139.70 L 685.40 135.60 L 691.80 131.90 L 698.40 128.70 L 702.90 126.90 L 712.50 124.40 L 715.70 128.00 L 713.00 134.90 L 703.60 144.50 L 699.20 149.60 L 687.80 163.80 L 680.40 172.30 L 649.00 205.20 L 653.50 203.70 L 665.60 211.60 L 676.80 220.70 L 683.80 227.30 L 690.50 234.20 L 696.90 241.30 L 715.00 263.80 L 716.40 259.40 L 723.00 268.10 L 732.60 264.90 L 731.20 274.70 L 731.00 279.60 L 731.40 284.50 L 731.90 287.80 L 732.80 290.90 L 745.30 320.80 L 750.50 334.40 L 755.10 348.10 L 757.80 357.30 L 760.00 366.70 L 761.70 376.30 L 720.70 387.80 L 717.00 390.00 L 714.20 393.10 L 713.10 395.10 L 718.70 394.80 L 729.90 393.30 L 763.20 386.30 L 760.60 415.70 L 725.20 421.80 L 707.80 426.00 L 696.80 415.10 L 682.90 399.10 L 675.70 391.30 L 668.30 383.70 L 665.30 365.60 L 676.40 365.70 L 683.70 364.90 L 690.60 362.90 L 693.90 361.30 L 697.10 359.10 L 681.90 360.50 L 673.50 360.30 L 666.90 358.80 L 648.20 353.20 L 641.80 351.90 L 633.20 351.00 L 624.70 351.40 L 620.40 352.20 L 612.70 355.00 L 609.60 356.90 L 606.90 359.20 L 602.40 364.80 L 600.60 368.00 L 598.30 373.00 L 596.40 378.10 L 568.20 359.60 L 560.90 355.30 L 553.40 351.40 L 547.00 348.80 L 540.50 346.50 L 533.80 344.60 L 526.90 343.20 L 520.00 342.10 L 513.10 341.60 L 506.20 341.50 L 499.30 341.90 L 492.40 342.80 L 485.70 344.30 L 479.00 346.30 L 472.50 348.80 L 467.90 351.10 L 463.60 353.60 L 459.60 356.50 L 453.80 361.30 L 448.30 366.50 L 437.80 377.30 L 436.20 373.50 L 434.30 370.00 L 432.10 366.90 L 429.50 364.00 L 426.60 361.50 L 420.20 357.30 L 416.60 355.70 L 411.70 354.00 L 406.60 352.90 L 401.30 352.30 L 396.00 352.30 L 390.90 352.90 L 370.10 358.20 L 362.20 359.90 L 346.10 362.00 L 338.00 362.50 L 343.80 365.20 L 351.40 367.00 L 356.10 367.30 L 365.70 367.00 L 364.00 371.50 L 362.90 376.10 L 361.70 385.40 L 362.00 394.90 L 362.90 402.00 L 364.30 409.00 L 355.70 410.60 L 347.30 412.70 L 314.00 423.30 L 305.50 422.40 L 280.00 418.20 L 281.90 404.00 L 284.30 390.00 L 293.00 392.30 L 301.80 394.10 L 313.70 395.70 L 319.70 396.00 L 316.00 393.20 L 312.10 390.80 L 308.00 388.80 L 301.60 386.30 L 274.70 379.00 L 268.20 376.80 L 270.60 364.60 L 273.60 352.50 L 277.20 340.60 L 281.20 328.90 L 285.70 317.30 L 294.30 296.90 L 297.60 287.70 L 298.70 283.10 L 299.40 278.30 L 299.20 272.00 L 298.50 268.70 L 307.60 274.50 L 313.20 267.60 L 321.10 255.30 L 325.20 249.60 L 334.40 239.10 L 344.50 229.40 L 352.60 222.60 L 360.90 216.20 L 378.00 203.80 L 370.20 194.20 L 346.80 169.70 L 316.60 134.80 L 309.20 125.80 Z M 369.40 291.00 L 374.30 288.60 L 379.30 286.80 L 384.50 285.50 L 389.70 284.80 L 394.90 284.50 L 400.20 284.80 L 405.40 285.50 L 410.50 286.60 L 415.60 288.20 L 420.60 290.20 L 425.30 292.60 L 429.90 295.40 L 427.90 291.60 L 425.40 288.10 L 422.50 284.90 L 419.20 282.00 L 415.70 279.50 L 411.80 277.40 L 407.80 275.70 L 403.70 274.60 L 399.40 274.00 L 395.20 274.00 L 390.90 274.60 L 386.70 275.90 L 383.10 277.50 L 379.90 279.60 L 376.90 282.10 L 374.20 284.90 L 369.40 291.00 Z M 606.50 292.20 L 616.80 287.90 L 622.10 286.10 L 627.50 284.80 L 631.10 284.30 L 634.80 284.20 L 642.00 284.70 L 648.50 286.30 L 653.10 288.10 L 657.60 290.50 L 666.30 295.70 L 664.00 291.20 L 661.20 286.90 L 659.10 284.30 L 654.20 279.70 L 648.40 276.30 L 645.20 275.10 L 641.50 274.40 L 637.70 274.10 L 634.00 274.30 L 630.30 274.90 L 626.70 275.90 L 619.80 279.10 L 613.60 283.50 L 610.90 286.20 L 606.50 292.20 Z" fill="#f7b253" fill-rule="nonzero" node-id="130" stroke="none" target-height="301.9" target-width="495" target-x="268.2" target-y="124.1"></path><path d="M 298.50 268.70 L 296.00 256.80 L 294.10 244.90 L 292.80 232.80 L 292.10 220.70 L 292.00 208.50 L 292.60 196.40 L 293.80 184.30 L 295.60 172.30 L 297.50 162.70 L 299.80 153.30 L 302.60 144.00 L 305.70 134.90 L 309.20 125.80 L 316.60 134.80 L 311.40 142.40 L 309.40 145.80 L 307.90 149.40 L 306.20 155.00 L 305.00 160.90 L 302.80 178.90 L 300.90 191.80 L 300.40 198.80 L 300.30 205.80 L 300.60 212.80 L 301.50 222.10 L 303.00 231.40 L 305.00 240.60 L 307.40 249.70 L 313.20 267.60 L 307.60 274.50 L 298.50 268.70 Z" fill="#ea9f52" fill-rule="nonzero" node-id="132" stroke="none" target-height="148.7" target-width="24.600006" target-x="292" target-y="125.8"></path><path d="M 715.70 128.00 L 722.70 143.90 L 725.80 152.10 L 724.20 154.60 L 723.20 157.10 L 722.70 159.80 L 722.60 163.90 L 724.60 178.30 L 725.40 188.50 L 725.70 198.70 L 725.40 209.00 L 724.70 219.20 L 723.40 229.40 L 721.60 239.50 L 719.30 249.50 L 715.00 263.80 L 696.90 241.30 L 690.50 234.20 L 683.80 227.30 L 671.30 216.00 L 659.70 207.50 L 653.50 203.70 L 664.80 193.60 L 675.80 183.00 L 683.00 175.70 L 689.70 168.10 L 696.20 160.30 L 702.30 152.20 L 707.90 143.70 L 713.60 133.80 L 715.70 128.00 Z" fill="#de7d9f" fill-rule="nonzero" node-id="134" stroke="none" target-height="135.79999" target-width="72.29999" target-x="653.5" target-y="128"></path><path d="M 313.80 139.10 L 315.20 136.90 L 321.70 146.50 L 328.50 155.70 L 335.80 164.70 L 343.50 173.30 L 351.60 181.60 L 360.00 189.40 L 368.80 196.80 L 378.00 203.80 L 360.90 216.20 L 352.60 222.60 L 339.30 234.20 L 329.70 244.20 L 325.20 249.60 L 321.10 255.30 L 317.30 261.30 L 314.50 253.90 L 312.10 246.60 L 310.20 239.10 L 308.70 231.50 L 307.30 221.30 L 306.50 211.10 L 306.30 200.70 L 306.60 190.30 L 307.30 180.00 L 308.50 169.60 L 310.90 154.20 L 313.80 139.10 Z" fill="#e7829e" fill-rule="nonzero" node-id="136" stroke="none" target-height="124.399994" target-width="71.70001" target-x="306.3" target-y="136.9"></path><path d="M 723.20 168.10 L 722.60 163.90 L 722.70 159.80 L 723.20 157.10 L 724.20 154.60 L 725.80 152.10 L 730.60 170.40 L 732.50 179.70 L 735.20 198.60 L 736.00 208.10 L 736.40 227.10 L 736.00 236.60 L 735.30 246.10 L 732.60 264.90 L 723.00 268.10 L 716.40 259.40 L 719.30 249.50 L 721.60 239.50 L 723.40 229.40 L 724.70 219.20 L 725.40 209.00 L 725.70 198.70 L 725.40 188.50 L 724.60 178.30 L 723.20 168.10 Z" fill="#eaa648" fill-rule="nonzero" node-id="138" stroke="none" target-height="116" target-width="20" target-x="716.4" target-y="152.1"></path><path d="M 457.00 170.40 L 472.80 168.20 L 488.70 166.60 L 488.70 175.20 L 487.50 192.40 L 484.80 209.40 L 482.80 217.80 L 480.50 226.00 L 477.70 234.20 L 475.00 239.90 L 473.30 242.70 L 471.30 245.00 L 469.70 246.20 L 467.90 247.10 L 465.70 247.60 L 463.70 247.70 L 460.00 246.90 L 457.50 245.70 L 455.10 244.00 L 450.80 240.20 L 453.10 228.80 L 454.90 217.20 L 456.10 205.50 L 456.80 193.80 L 457.00 170.40 Z" fill="#ae684d" fill-rule="nonzero" node-id="140" stroke="none" target-height="81.09999" target-width="37.900024" target-x="450.8" target-y="166.6"></path><path d="M 540.00 166.40 L 550.30 167.80 L 560.50 169.50 L 570.70 171.70 L 573.60 208.90 L 575.40 227.50 L 577.80 246.10 L 575.70 247.40 L 573.70 248.20 L 571.60 248.60 L 567.40 248.30 L 565.40 247.60 L 562.50 246.10 L 560.00 244.00 L 557.80 241.50 L 553.20 233.10 L 550.60 227.40 L 546.60 215.70 L 544.50 207.60 L 542.90 199.50 L 541.70 191.30 L 540.60 178.80 L 540.00 166.40 Z" fill="#b2694e" fill-rule="nonzero" node-id="142" stroke="none" target-height="82.20001" target-width="37.799988" target-x="540" target-y="166.4"></path><path d="M 430.60 177.30 L 439.30 174.50 L 448.10 172.20 L 457.00 170.40 L 456.80 193.80 L 456.10 205.50 L 454.90 217.20 L 453.10 228.80 L 450.80 240.20 L 445.30 230.70 L 441.20 220.70 L 439.20 213.70 L 437.50 206.70 L 436.20 199.50 L 434.80 188.60 L 433.70 177.80 L 430.60 177.30 Z" fill="#8f5449" fill-rule="nonzero" node-id="144" stroke="none" target-height="69.8" target-width="26.399994" target-x="430.6" target-y="170.4"></path><path d="M 570.70 171.70 L 588.10 176.60 L 596.70 179.60 L 595.50 197.10 L 594.40 206.00 L 592.80 214.60 L 591.40 220.30 L 589.60 225.90 L 587.40 231.30 L 584.80 236.40 L 581.60 241.40 L 577.80 246.10 L 575.40 227.50 L 573.60 208.90 L 570.70 171.70 Z" fill="#9b5a4a" fill-rule="nonzero" node-id="146" stroke="none" target-height="74.40001" target-width="26" target-x="570.7" target-y="171.7"></path><path d="M 369.40 291.00 L 374.20 284.90 L 376.90 282.10 L 379.90 279.60 L 383.10 277.50 L 386.70 275.90 L 390.90 274.60 L 395.20 274.00 L 399.40 274.00 L 403.70 274.60 L 407.80 275.70 L 411.80 277.40 L 415.70 279.50 L 419.20 282.00 L 422.50 284.90 L 425.40 288.10 L 427.90 291.60 L 429.90 295.40 L 425.30 292.60 L 420.60 290.20 L 415.60 288.20 L 410.50 286.60 L 405.40 285.50 L 400.20 284.80 L 394.90 284.50 L 389.70 284.80 L 384.50 285.50 L 379.30 286.80 L 374.30 288.60 L 369.40 291.00 Z" fill="#241a1d" fill-rule="nonzero" node-id="148" stroke="none" target-height="21.399994" target-width="60.5" target-x="369.4" target-y="274"></path><path d="M 606.50 292.20 L 610.90 286.20 L 613.60 283.50 L 619.80 279.10 L 626.70 275.90 L 630.30 274.90 L 634.00 274.30 L 637.70 274.10 L 641.50 274.40 L 645.20 275.10 L 648.40 276.30 L 654.20 279.70 L 659.10 284.30 L 661.20 286.90 L 664.00 291.20 L 666.30 295.70 L 657.60 290.50 L 653.10 288.10 L 648.50 286.30 L 642.00 284.70 L 634.80 284.20 L 631.10 284.30 L 627.50 284.80 L 622.10 286.10 L 616.80 287.90 L 606.50 292.20 Z" fill="#2d1f1f" fill-rule="nonzero" node-id="150" stroke="none" target-height="21.600006" target-width="59.799988" target-x="606.5" target-y="274.1"></path><path d="M 385.80 354.10 L 390.90 352.90 L 396.00 352.30 L 401.30 352.30 L 406.60 352.90 L 411.70 354.00 L 416.60 355.70 L 423.50 359.20 L 429.50 364.00 L 432.10 366.90 L 434.30 370.00 L 436.20 373.50 L 437.80 377.30 L 438.50 382.20 L 438.70 387.10 L 438.50 392.00 L 437.70 396.90 L 436.40 401.70 L 434.60 406.30 L 432.40 410.60 L 429.70 414.60 L 426.50 418.30 L 423.80 420.80 L 417.60 424.80 L 409.90 427.90 L 405.70 428.90 L 401.50 429.40 L 397.20 429.30 L 393.00 428.80 L 388.80 427.80 L 384.80 426.40 L 380.90 424.60 L 377.10 422.40 L 373.60 419.80 L 370.40 417.00 L 367.40 413.80 L 364.30 409.00 L 362.90 402.00 L 362.00 394.90 L 361.70 390.10 L 362.10 380.70 L 362.90 376.10 L 364.00 371.50 L 365.70 367.00 L 356.10 367.30 L 351.40 367.00 L 343.80 365.20 L 338.00 362.50 L 346.10 362.00 L 362.20 359.90 L 378.00 356.30 L 385.80 354.10 Z M 374.40 367.10 L 372.60 368.40 L 371.20 369.90 L 369.40 373.80 L 369.00 378.00 L 369.30 380.00 L 370.00 381.90 L 371.10 383.50 L 372.50 384.90 L 374.40 385.80 L 376.80 386.40 L 379.20 385.70 L 381.20 384.60 L 382.80 383.10 L 384.20 381.30 L 385.90 376.90 L 386.20 372.30 L 385.70 368.50 L 384.50 366.50 L 383.10 365.50 L 381.30 365.00 L 379.40 364.90 L 377.50 365.20 L 375.80 366.00 L 374.40 367.10 Z" fill="#361d2c" fill-rule="nonzero" node-id="152" stroke="none" target-height="77.100006" target-width="100.70001" target-x="338" target-y="352.3"></path><path d="M 616.10 353.60 L 620.40 352.20 L 624.70 351.40 L 633.20 351.00 L 641.80 351.90 L 648.20 353.20 L 666.90 358.80 L 673.50 360.30 L 681.90 360.50 L 697.10 359.10 L 693.90 361.30 L 690.60 362.90 L 683.70 364.90 L 676.40 365.70 L 665.30 365.60 L 668.30 383.70 L 666.90 393.20 L 663.90 402.80 L 661.90 407.30 L 659.40 411.60 L 656.60 415.60 L 653.30 419.10 L 649.60 422.10 L 646.60 423.90 L 643.30 425.40 L 639.70 426.40 L 635.80 427.00 L 631.90 427.20 L 628.20 427.00 L 624.60 426.40 L 621.30 425.40 L 616.90 423.40 L 612.90 420.90 L 609.30 417.90 L 606.00 414.50 L 603.10 410.60 L 600.60 406.40 L 598.60 402.00 L 597.10 397.40 L 596.00 392.60 L 595.60 387.70 L 595.70 382.90 L 596.40 378.10 L 598.30 373.00 L 600.60 368.00 L 604.60 361.90 L 606.90 359.20 L 609.60 356.90 L 612.70 355.00 L 616.10 353.60 Z M 649.50 364.70 L 647.80 365.90 L 646.60 367.30 L 646.00 369.00 L 645.80 372.60 L 646.30 374.40 L 647.10 376.20 L 649.60 379.00 L 651.20 380.00 L 653.00 380.60 L 655.00 380.70 L 656.50 379.60 L 658.50 377.10 L 659.20 374.80 L 659.30 372.40 L 658.90 370.00 L 657.90 367.90 L 657.00 366.60 L 654.50 364.90 L 651.40 364.40 L 649.50 364.70 Z" fill="#391d2b" fill-rule="nonzero" node-id="154" stroke="none" target-height="76.20001" target-width="101.5" target-x="595.6" target-y="351"></path><path d="M 266.70 385.80 L 284.30 390.00 L 281.90 404.00 L 280.00 418.20 L 266.60 416.00 L 266.30 405.90 L 266.70 385.80 Z" fill="#dd904f" fill-rule="nonzero" node-id="156" stroke="none" target-height="32.400024" target-width="18" target-x="266.3" target-y="385.8"></path><path d="M 314.00 423.30 L 347.30 412.70 L 355.70 410.60 L 364.30 409.00 L 367.40 413.80 L 363.50 415.10 L 366.30 421.10 L 371.00 427.80 L 380.70 439.00 L 383.40 443.60 L 384.10 446.10 L 384.70 451.30 L 384.40 453.90 L 383.10 459.00 L 380.50 463.70 L 376.90 467.50 L 373.00 470.60 L 368.90 473.30 L 360.10 477.50 L 350.70 480.40 L 343.50 482.00 L 336.20 483.20 L 321.60 484.90 L 316.70 482.10 L 312.60 475.70 L 309.00 469.10 L 306.90 464.50 L 305.20 459.80 L 302.90 450.80 L 305.40 435.70 L 310.60 430.60 L 314.00 423.30 Z" fill="#fcc5d8" fill-rule="nonzero" node-id="158" stroke="none" target-height="75.899994" target-width="81.80002" target-x="302.9" target-y="409"></path><path d="M 696.80 415.10 L 713.10 431.60 L 715.40 440.60 L 716.70 449.80 L 717.00 459.10 L 716.70 462.60 L 715.00 469.50 L 713.60 472.70 L 711.80 475.80 L 709.60 478.60 L 704.70 483.40 L 684.80 477.70 L 678.20 475.60 L 674.00 473.90 L 666.00 469.70 L 662.40 467.00 L 659.00 464.00 L 655.90 460.40 L 654.20 457.30 L 653.00 454.10 L 652.40 450.80 L 652.30 447.50 L 652.60 444.20 L 653.30 440.80 L 655.90 434.50 L 659.80 428.70 L 662.10 426.20 L 666.80 422.10 L 671.70 419.30 L 675.60 417.90 L 684.00 416.30 L 696.80 415.10 Z M 684.00 427.20 L 678.80 434.30 L 674.10 441.70 L 688.00 442.00 L 701.90 441.80 L 701.80 439.40 L 701.20 437.50 L 698.90 434.50 L 695.60 432.20 L 684.00 427.20 Z" fill="#fbc8d6" fill-rule="nonzero" node-id="160" stroke="none" target-height="68.29999" target-width="64.70001" target-x="652.3" target-y="415.1"></path><path d="M 266.50 426.00 L 281.20 427.00 L 295.90 428.60 L 283.30 429.10 L 285.30 449.70 L 273.10 449.50 L 266.50 426.00 Z" fill="#c67654" fill-rule="nonzero" node-id="162" stroke="none" target-height="23.700012" target-width="29.399994" target-x="266.5" target-y="426"></path><path d="M 295.90 428.60 L 310.60 430.60 L 305.40 435.70 L 298.60 441.10 L 284.40 439.50 L 283.30 429.10 L 295.90 428.60 Z" fill="#f4c792" fill-rule="nonzero" node-id="164" stroke="none" target-height="12.5" target-width="27.300018" target-x="283.3" target-y="428.6"></path><path d="M 684.00 427.20 L 695.60 432.20 L 698.90 434.50 L 701.20 437.50 L 701.80 439.40 L 701.90 441.80 L 688.00 442.00 L 674.10 441.70 L 678.80 434.30 L 684.00 427.20 Z" fill="#f6eaeb" fill-rule="nonzero" node-id="166" stroke="none" target-height="14.799988" target-width="27.800049" target-x="674.1" target-y="427.2"></path><path d="M 736.00 428.50 L 760.70 425.50 L 753.00 450.20 L 736.20 450.10 L 745.00 429.00 L 736.00 428.50 Z" fill="#b46652" fill-rule="nonzero" node-id="168" stroke="none" target-height="24.700012" target-width="24.700012" target-x="736" target-y="425.5"></path><path d="M 490.20 432.50 L 499.60 430.00 L 504.50 429.20 L 514.40 428.60 L 524.30 429.40 L 533.70 431.60 L 533.60 433.80 L 532.50 437.60 L 530.90 440.30 L 528.80 442.80 L 521.80 450.10 L 519.80 452.70 L 517.90 456.60 L 517.40 458.70 L 518.90 461.80 L 520.70 464.60 L 523.00 467.10 L 528.20 471.30 L 531.20 472.90 L 534.40 474.10 L 537.70 475.00 L 541.00 475.40 L 544.40 475.40 L 547.70 474.90 L 554.00 472.90 L 556.60 471.50 L 559.00 469.60 L 562.20 466.40 L 570.80 455.60 L 571.30 458.40 L 571.30 461.10 L 570.90 463.70 L 570.10 466.10 L 568.60 469.10 L 566.60 471.90 L 564.10 474.50 L 561.20 476.70 L 558.10 478.50 L 554.80 480.00 L 551.30 481.10 L 547.80 481.80 L 540.40 482.10 L 536.50 481.70 L 532.70 480.90 L 529.10 479.60 L 525.60 477.90 L 522.30 475.80 L 516.30 470.70 L 513.70 467.70 L 510.80 471.10 L 507.50 474.00 L 503.80 476.40 L 499.80 478.40 L 495.60 479.90 L 491.20 480.90 L 486.80 481.30 L 482.40 481.30 L 478.10 480.70 L 475.00 479.90 L 469.20 477.30 L 466.50 475.50 L 464.20 473.40 L 462.00 471.00 L 460.20 468.20 L 458.60 464.90 L 458.90 456.80 L 468.50 467.90 L 471.10 470.40 L 474.00 472.40 L 476.10 473.50 L 481.00 474.70 L 487.20 474.70 L 490.50 474.20 L 493.80 473.40 L 499.80 470.80 L 502.50 469.00 L 504.80 466.90 L 506.80 464.50 L 508.70 460.30 L 509.40 455.40 L 504.60 449.70 L 496.50 441.80 L 494.10 438.90 L 491.90 435.90 L 490.20 432.50 Z M 499.20 434.00 L 501.50 437.20 L 505.00 439.50 L 509.30 440.90 L 512.70 441.20 L 516.00 441.00 L 520.30 439.80 L 523.70 437.50 L 525.00 436.00 L 526.00 434.10 L 517.00 433.70 L 499.20 434.00 Z" fill="#391623" fill-rule="nonzero" node-id="170" stroke="none" target-height="53.5" target-width="112.69998" target-x="458.6" target-y="428.6"></path><path d="M 713.10 431.60 L 736.00 428.50 L 745.00 429.00 L 736.20 450.10 L 716.70 449.80 L 715.40 440.60 L 713.10 431.60 Z" fill="#f3c682" fill-rule="nonzero" node-id="172" stroke="none" target-height="21.600006" target-width="31.900024" target-x="713.1" target-y="428.5"></path><path d="M 499.20 434.00 L 517.00 433.70 L 526.00 434.10 L 525.00 436.00 L 523.70 437.50 L 520.30 439.80 L 516.00 441.00 L 512.70 441.20 L 509.30 440.90 L 505.00 439.50 L 501.50 437.20 L 499.20 434.00 Z" fill="#794f61" fill-rule="nonzero" node-id="174" stroke="none" target-height="7.5" target-width="26.799988" target-x="499.2" target-y="433.7"></path><path d="M 298.60 441.10 L 305.40 435.70 L 302.90 450.80 L 294.10 450.00 L 285.30 449.70 L 284.40 439.50 L 298.60 441.10 Z" fill="#f19865" fill-rule="nonzero" node-id="176" stroke="none" target-height="15.099976" target-width="21" target-x="284.4" target-y="435.7"></path><path d="M 276.80 458.00 L 303.90 455.00 L 305.20 459.80 L 309.00 469.10 L 312.60 475.70 L 316.70 482.10 L 304.80 483.60 L 292.90 484.70 L 291.20 482.30 L 297.00 476.80 L 290.90 463.00 L 278.70 461.10 L 276.80 458.00 Z" fill="#df8191" fill-rule="nonzero" node-id="178" stroke="none" target-height="29.700012" target-width="39.900024" target-x="276.8" target-y="455"></path><path d="M 716.90 455.40 L 749.30 457.70 L 749.10 459.50 L 732.00 460.70 L 731.20 469.20 L 731.40 471.90 L 731.90 474.60 L 732.90 477.00 L 733.90 478.50 L 737.10 481.20 L 732.30 482.80 L 726.10 483.00 L 714.60 481.40 L 710.70 481.10 L 707.00 481.20 L 709.60 478.60 L 711.80 475.80 L 713.60 472.70 L 715.00 469.50 L 716.70 462.60 L 716.90 455.40 Z" fill="#d59f75" fill-rule="nonzero" node-id="180" stroke="none" target-height="27.600006" target-width="42.299988" target-x="707" target-y="455.4"></path><path d="M 732.00 460.70 L 749.10 459.50 L 743.40 470.50 L 737.10 481.20 L 733.90 478.50 L 732.90 477.00 L 731.90 474.60 L 731.40 471.90 L 731.20 469.20 L 732.00 460.70 Z" fill="#ae6857" fill-rule="nonzero" node-id="182" stroke="none" target-height="21.700012" target-width="17.899963" target-x="731.2" target-y="459.5"></path><path d="M 278.70 461.10 L 290.90 463.00 L 297.00 476.80 L 291.20 482.30 L 284.80 471.80 L 278.70 461.10 Z" fill="#c76c6b" fill-rule="nonzero" node-id="184" stroke="none" target-height="21.199982" target-width="18.299988" target-x="278.7" target-y="461.1"></path><path d="M 319.30 483.60 L 321.60 484.90 L 328.40 490.50 L 335.40 495.80 L 342.60 500.70 L 350.10 505.20 L 360.30 510.70 L 370.80 515.60 L 381.70 520.00 L 392.70 523.90 L 403.90 527.40 L 426.70 533.00 L 449.50 537.30 L 462.70 539.20 L 475.90 540.80 L 489.20 541.90 L 502.50 542.50 L 515.80 542.70 L 529.10 542.40 L 542.40 541.80 L 555.70 540.60 L 568.90 539.10 L 582.10 537.10 L 595.20 534.70 L 608.20 531.90 L 605.80 541.20 L 619.30 545.40 L 610.00 551.90 L 591.30 555.30 L 572.60 558.20 L 579.90 558.80 L 583.70 560.30 L 591.50 562.10 L 597.40 562.80 L 621.70 563.50 L 627.70 564.30 L 618.80 571.00 L 616.50 580.50 L 603.90 576.00 L 597.50 574.40 L 587.80 572.50 L 577.90 571.20 L 567.90 570.40 L 557.90 570.00 L 538.00 569.90 L 504.10 570.90 L 481.60 572.50 L 459.20 575.40 L 448.20 577.60 L 437.20 580.20 L 428.70 575.30 L 437.90 558.00 L 431.60 556.10 L 425.10 554.70 L 405.60 551.40 L 389.40 547.80 L 379.70 545.00 L 370.00 541.80 L 360.50 538.20 L 351.30 534.10 L 342.30 529.50 L 329.40 521.60 L 317.40 512.50 L 311.80 507.50 L 306.50 502.10 L 301.50 496.40 L 296.80 490.40 L 304.40 488.40 L 319.30 483.60 Z" fill="#f0ab53" fill-rule="nonzero" node-id="186" stroke="none" target-height="96.899994" target-width="330.90002" target-x="296.8" target-y="483.6"></path><path d="M 704.70 483.40 L 707.00 481.20 L 712.60 483.90 L 718.40 486.10 L 730.30 489.70 L 721.20 500.40 L 711.20 509.80 L 703.90 515.40 L 696.40 520.50 L 688.50 525.20 L 680.30 529.50 L 672.00 533.40 L 663.40 536.90 L 645.80 542.90 L 623.40 549.00 L 610.00 551.90 L 619.30 545.40 L 605.80 541.20 L 608.20 531.90 L 619.90 528.70 L 631.50 525.10 L 642.90 521.00 L 659.60 513.70 L 675.60 505.10 L 683.30 500.30 L 690.70 495.00 L 697.80 489.40 L 704.70 483.40 Z" fill="#edab59" fill-rule="nonzero" node-id="188" stroke="none" target-height="70.70001" target-width="124.5" target-x="605.8" target-y="481.2"></path><path d="M 579.90 558.80 L 605.20 557.80 L 617.90 556.80 L 630.50 555.40 L 643.00 553.50 L 655.50 551.20 L 667.80 548.40 L 680.10 545.00 L 692.10 541.00 L 700.00 555.50 L 722.80 599.50 L 734.90 628.10 L 732.60 633.40 L 730.80 638.80 L 729.40 644.20 L 727.90 652.60 L 723.40 686.40 L 721.70 694.70 L 734.90 699.40 L 733.10 705.60 L 730.80 711.70 L 728.10 717.70 L 725.00 723.50 L 721.50 729.10 L 717.60 734.40 L 713.30 739.40 L 708.70 744.00 L 703.70 748.30 L 698.40 752.10 L 692.80 755.40 L 686.80 758.20 L 694.80 717.90 L 698.40 695.40 L 699.30 686.40 L 699.80 670.50 L 698.80 656.90 L 697.80 650.10 L 696.30 660.40 L 692.40 680.60 L 688.70 695.50 L 684.50 710.40 L 671.60 754.90 L 667.70 769.90 L 663.30 790.00 L 661.60 800.10 L 659.30 803.60 L 656.60 806.80 L 653.50 809.80 L 650.10 812.50 L 646.40 814.90 L 642.50 816.90 L 638.30 818.50 L 634.20 819.60 L 629.90 820.40 L 625.60 820.60 L 621.40 820.30 L 617.20 819.50 L 614.20 818.60 L 608.60 815.60 L 605.90 813.50 L 602.90 810.60 L 600.40 807.50 L 598.30 804.00 L 596.60 800.30 L 594.40 792.50 L 593.60 786.40 L 593.40 780.40 L 593.60 771.70 L 594.30 763.10 L 595.50 754.60 L 597.00 746.10 L 601.20 729.30 L 606.90 713.00 L 611.40 702.40 L 616.50 692.10 L 622.10 682.00 L 617.20 685.50 L 612.70 689.30 L 608.50 693.40 L 604.50 697.80 L 597.50 707.30 L 591.90 717.70 L 585.00 713.20 L 592.40 702.30 L 600.40 691.60 L 624.80 660.20 L 632.50 649.40 L 637.20 642.00 L 641.70 634.40 L 645.70 626.50 L 647.80 620.10 L 648.20 614.20 L 647.60 610.30 L 646.50 606.60 L 644.80 603.10 L 642.70 599.70 L 640.30 596.50 L 637.40 593.50 L 630.90 588.10 L 627.40 585.80 L 621.90 582.80 L 616.50 580.50 L 618.80 571.00 L 627.70 564.30 L 621.70 563.50 L 597.40 562.80 L 591.50 562.10 L 583.70 560.30 L 579.90 558.80 Z" fill="#f7b054" fill-rule="nonzero" node-id="190" stroke="none" target-height="279.59998" target-width="155" target-x="579.9" target-y="541"></path><path d="M 337.80 544.10 L 345.70 547.40 L 353.70 550.30 L 361.80 552.80 L 370.10 554.80 L 386.90 557.60 L 403.90 559.00 L 415.30 559.20 L 426.60 558.80 L 437.90 558.00 L 428.70 575.30 L 437.20 580.20 L 430.10 582.70 L 418.50 588.10 L 410.10 593.50 L 406.20 596.70 L 402.70 600.30 L 399.40 604.30 L 397.90 606.70 L 396.90 609.30 L 396.40 611.90 L 396.30 614.70 L 397.00 620.20 L 398.30 624.30 L 403.10 633.70 L 406.50 639.20 L 416.00 652.20 L 434.30 674.80 L 427.80 681.70 L 430.30 684.20 L 435.20 695.00 L 439.60 705.90 L 443.60 717.10 L 447.00 728.40 L 449.90 739.80 L 452.20 751.40 L 453.50 760.20 L 454.90 777.80 L 454.80 792.00 L 454.10 797.40 L 452.20 804.30 L 450.80 807.50 L 448.90 810.50 L 446.60 813.20 L 443.80 815.60 L 440.20 817.70 L 436.40 819.40 L 432.40 820.80 L 428.30 821.70 L 424.20 822.20 L 420.00 822.30 L 415.80 822.00 L 411.70 821.30 L 407.60 820.20 L 403.70 818.70 L 400.10 816.80 L 396.60 814.50 L 392.70 810.70 L 391.20 808.50 L 389.50 804.90 L 388.20 801.00 L 382.90 774.60 L 380.50 765.50 L 376.50 752.00 L 358.10 698.70 L 353.90 685.20 L 349.40 666.90 L 347.70 657.60 L 347.10 665.10 L 347.00 679.80 L 348.60 696.80 L 350.20 706.40 L 355.50 730.20 L 363.20 758.70 L 369.20 782.40 L 372.80 801.60 L 352.30 799.30 L 342.00 797.70 L 331.80 795.50 L 325.20 793.50 L 318.80 791.10 L 312.60 788.30 L 308.20 785.70 L 304.00 782.80 L 300.00 779.60 L 293.10 772.40 L 287.80 764.90 L 285.70 761.00 L 283.20 755.50 L 281.30 749.80 L 279.80 743.90 L 278.10 731.80 L 277.80 719.50 L 278.80 707.50 L 291.60 704.00 L 304.50 701.00 L 317.50 698.40 L 314.90 671.50 L 314.30 662.50 L 314.20 644.50 L 315.30 624.10 L 318.40 593.70 L 319.10 583.50 L 328.80 563.90 L 337.80 544.10 Z" fill="#f7b154" fill-rule="nonzero" node-id="192" stroke="none" target-height="278.2" target-width="177.1" target-x="277.8" target-y="544.1"></path><path d="M 714.90 570.40 L 722.80 573.80 L 730.10 578.40 L 741.00 599.00 L 746.00 609.50 L 750.70 620.20 L 755.00 631.00 L 762.10 650.50 L 766.50 665.00 L 768.70 676.90 L 767.10 681.30 L 765.90 685.80 L 765.20 690.30 L 764.50 697.20 L 763.70 718.00 L 761.80 714.40 L 760.40 710.60 L 759.40 706.70 L 757.30 694.70 L 756.30 690.90 L 753.60 684.90 L 750.20 680.60 L 746.30 662.70 L 741.50 645.10 L 738.40 636.50 L 722.80 599.50 L 722.90 596.10 L 722.10 589.40 L 720.80 584.50 L 719.00 579.70 L 714.90 570.40 Z" fill="#361e2a" fill-rule="nonzero" node-id="194" stroke="none" target-height="147.59998" target-width="53.799988" target-x="714.9" target-y="570.4"></path><path d="M 209.60 594.10 L 208.90 592.40 L 208.80 589.10 L 209.40 587.50 L 211.30 585.10 L 212.70 584.30 L 214.30 583.80 L 216.20 583.80 L 219.30 585.40 L 222.10 587.40 L 227.00 592.30 L 231.30 597.80 L 239.80 610.90 L 248.90 628.30 L 264.20 662.90 L 265.20 667.70 L 265.20 671.50 L 262.90 688.10 L 250.00 692.90 L 243.50 671.00 L 236.00 671.10 L 229.60 692.30 L 221.50 678.90 L 218.00 680.30 L 212.40 681.60 L 206.60 682.40 L 195.00 683.10 L 190.70 676.40 L 171.70 651.00 L 167.50 644.30 L 167.10 642.70 L 167.40 640.10 L 168.50 638.40 L 170.10 637.00 L 174.20 635.00 L 178.30 634.30 L 183.10 635.30 L 187.60 636.80 L 196.20 641.00 L 204.10 646.40 L 209.60 651.00 L 214.90 655.90 L 225.00 666.20 L 224.00 658.00 L 221.10 641.90 L 209.60 594.10 Z" fill="#eeb058" fill-rule="nonzero" node-id="196" stroke="none" target-height="109.10004" target-width="98.100006" target-x="167.1" target-y="583.8"></path><path d="M 293.20 638.40 L 296.90 628.90 L 305.00 610.40 L 311.80 596.80 L 319.10 583.50 L 318.40 593.70 L 315.30 624.10 L 314.20 644.50 L 294.70 641.80 L 293.20 638.40 Z" fill="#c37d53" fill-rule="nonzero" node-id="198" stroke="none" target-height="61" target-width="25.899994" target-x="293.2" target-y="583.5"></path><path d="M 780.80 597.50 L 781.90 595.90 L 784.70 594.00 L 787.10 593.30 L 789.80 592.90 L 795.10 592.90 L 794.50 601.90 L 793.60 610.80 L 788.20 646.30 L 787.20 655.20 L 786.70 664.20 L 782.50 664.50 L 778.40 665.50 L 773.30 667.70 L 771.00 669.30 L 769.30 681.30 L 767.70 670.90 L 766.50 665.00 L 762.10 650.50 L 758.90 642.00 L 764.90 626.50 L 768.20 618.90 L 771.90 611.50 L 776.10 604.30 L 780.80 597.50 Z" fill="#f2b559" fill-rule="nonzero" node-id="200" stroke="none" target-height="88.39996" target-width="36.19995" target-x="758.9" target-y="592.9"></path><path d="M 734.90 628.10 L 738.40 636.50 L 741.50 645.10 L 746.30 662.70 L 750.20 680.60 L 751.70 701.80 L 734.90 699.40 L 721.70 694.70 L 723.40 686.40 L 727.90 652.60 L 729.40 644.20 L 730.80 638.80 L 732.60 633.40 L 734.90 628.10 Z" fill="#a45d4a" fill-rule="nonzero" node-id="202" stroke="none" target-height="73.70001" target-width="30" target-x="721.7" target-y="628.1"></path><path d="M 278.80 707.50 L 284.60 672.60 L 286.90 661.10 L 290.80 645.90 L 293.20 638.40 L 294.70 641.80 L 314.20 644.50 L 314.30 662.50 L 314.90 671.50 L 317.50 698.40 L 304.50 701.00 L 291.60 704.00 L 278.80 707.50 Z" fill="#9f5a45" fill-rule="nonzero" node-id="204" stroke="none" target-height="69.099976" target-width="38.700012" target-x="278.8" target-y="638.4"></path><path d="M 823.20 639.80 L 828.70 638.80 L 831.80 638.80 L 834.70 639.30 L 836.50 640.00 L 838.00 640.90 L 839.10 642.10 L 839.70 643.50 L 839.90 645.30 L 839.40 647.70 L 829.40 663.30 L 824.00 670.80 L 815.40 681.80 L 806.40 692.50 L 799.30 693.90 L 796.40 692.30 L 793.40 691.30 L 780.80 688.90 L 777.30 685.80 L 771.90 678.10 L 778.60 676.80 L 781.90 675.30 L 792.00 662.80 L 796.50 658.10 L 801.40 653.80 L 806.50 649.70 L 811.80 646.10 L 817.40 642.80 L 823.20 639.80 Z" fill="#ecb257" fill-rule="nonzero" node-id="206" stroke="none" target-height="55.100037" target-width="68" target-x="771.9" target-y="638.8"></path><path d="M 236.00 671.10 L 243.50 671.00 L 247.40 684.00 L 245.10 695.90 L 244.40 702.00 L 243.60 720.40 L 237.10 706.10 L 233.50 699.10 L 229.60 692.30 L 236.00 671.10 Z" fill="#a0b27d" fill-rule="nonzero" node-id="208" stroke="none" target-height="49.400024" target-width="17.799988" target-x="229.6" target-y="671"></path><path d="M 427.80 681.70 L 434.30 674.80 L 443.30 686.00 L 474.80 728.30 L 487.20 742.80 L 490.90 746.60 L 495.00 749.90 L 499.40 752.80 L 504.00 755.30 L 508.90 757.20 L 513.90 758.70 L 519.10 759.60 L 524.20 760.00 L 529.50 759.80 L 537.10 758.30 L 544.60 755.40 L 550.20 751.90 L 555.40 748.00 L 560.20 743.70 L 564.80 739.00 L 573.30 729.00 L 585.00 713.20 L 591.90 717.70 L 588.30 726.90 L 585.10 736.30 L 582.40 745.80 L 580.10 755.40 L 578.50 765.20 L 577.50 775.00 L 577.20 782.30 L 577.30 789.70 L 577.90 797.10 L 578.90 804.50 L 566.70 806.10 L 554.50 807.20 L 542.20 807.80 L 530.00 808.00 L 505.50 807.50 L 487.10 806.30 L 468.70 804.70 L 469.40 794.00 L 469.40 783.20 L 468.80 772.20 L 467.90 764.00 L 466.70 755.90 L 465.00 747.80 L 462.90 739.90 L 460.40 732.00 L 457.50 724.40 L 454.10 717.00 L 450.30 709.90 L 446.00 703.00 L 441.30 696.40 L 436.10 690.20 L 427.80 681.70 Z" fill="#eda556" fill-rule="nonzero" node-id="210" stroke="none" target-height="133.20001" target-width="164.10004" target-x="427.8" target-y="674.8"></path><path d="M 195.00 683.10 L 206.60 682.40 L 212.40 681.60 L 218.00 680.30 L 218.70 684.20 L 220.90 691.70 L 223.20 697.10 L 231.10 713.10 L 233.40 718.50 L 235.30 724.10 L 225.40 713.80 L 205.20 690.10 L 201.20 687.20 L 194.30 684.50 L 197.50 690.30 L 195.00 700.80 L 193.00 711.40 L 187.50 705.70 L 185.00 702.60 L 181.60 697.00 L 180.00 692.00 L 180.80 689.80 L 181.80 687.90 L 184.80 685.10 L 188.60 683.40 L 192.80 682.90 L 195.00 683.10 Z" fill="#bbb369" fill-rule="nonzero" node-id="212" stroke="none" target-height="43.799988" target-width="55.300003" target-x="180" target-y="680.3"></path><path d="M 218.00 680.30 L 221.50 678.90 L 233.50 699.10 L 237.10 706.10 L 243.60 720.40 L 244.40 702.00 L 245.10 695.90 L 247.40 684.00 L 250.00 692.90 L 255.80 722.50 L 257.70 729.80 L 260.00 737.10 L 261.60 745.10 L 252.60 746.90 L 247.00 739.10 L 235.30 724.10 L 233.40 718.50 L 231.10 713.10 L 223.20 697.10 L 220.90 691.70 L 218.70 684.20 L 218.00 680.30 Z" fill="#86a97e" fill-rule="nonzero" node-id="214" stroke="none" target-height="68" target-width="43.600006" target-x="218" target-y="678.9"></path><path d="M 769.30 681.30 L 771.90 678.10 L 777.30 685.80 L 778.90 687.50 L 780.80 688.90 L 793.40 691.30 L 796.40 692.30 L 799.30 693.90 L 791.50 697.30 L 784.00 701.40 L 769.70 710.60 L 769.70 695.90 L 769.30 681.30 Z" fill="#e5be67" fill-rule="nonzero" node-id="216" stroke="none" target-height="32.5" target-width="30" target-x="769.3" target-y="678.1"></path><path d="M 194.30 684.50 L 201.20 687.20 L 205.20 690.10 L 225.40 713.80 L 235.30 724.10 L 247.00 739.10 L 252.60 746.90 L 229.60 752.50 L 212.10 731.50 L 212.20 726.40 L 211.70 721.50 L 210.60 716.70 L 209.10 712.10 L 205.10 703.00 L 194.30 684.50 Z" fill="#6f9b7e" fill-rule="nonzero" node-id="218" stroke="none" target-height="68" target-width="58.300003" target-x="194.3" target-y="684.5"></path><path d="M 250.00 692.90 L 262.90 688.10 L 261.70 696.20 L 260.20 712.50 L 259.80 724.80 L 260.00 737.10 L 257.70 729.80 L 255.80 722.50 L 250.00 692.90 Z" fill="#dfbd7c" fill-rule="nonzero" node-id="220" stroke="none" target-height="49" target-width="12.899994" target-x="250" target-y="688.1"></path><path d="M 809.70 691.90 L 811.30 690.60 L 813.00 689.60 L 814.80 689.20 L 818.60 689.20 L 822.30 690.60 L 825.30 693.00 L 827.50 696.20 L 828.10 698.00 L 828.30 699.90 L 828.10 701.90 L 827.30 704.00 L 824.50 708.80 L 821.30 713.20 L 806.50 729.70 L 803.00 734.00 L 799.90 738.50 L 806.50 734.50 L 813.70 731.30 L 818.70 730.40 L 823.60 730.90 L 826.10 731.80 L 828.60 733.30 L 829.40 735.80 L 829.60 738.10 L 829.30 740.20 L 827.30 744.20 L 823.20 748.70 L 814.70 755.60 L 811.10 753.20 L 807.10 751.30 L 794.50 746.80 L 788.00 743.70 L 783.60 740.40 L 781.80 738.30 L 780.30 735.80 L 779.00 732.80 L 783.10 728.80 L 790.50 720.20 L 795.50 713.30 L 809.70 691.90 Z" fill="#c3b365" fill-rule="nonzero" node-id="222" stroke="none" target-height="66.39996" target-width="50.599976" target-x="779" target-y="689.2"></path><path d="M 197.50 690.30 L 205.10 703.00 L 209.10 712.10 L 210.60 716.70 L 211.70 721.50 L 212.20 726.40 L 212.10 731.50 L 229.60 752.50 L 226.20 751.50 L 223.10 750.10 L 220.20 748.30 L 216.30 745.10 L 205.20 734.10 L 205.50 731.80 L 205.40 729.70 L 204.80 727.70 L 203.40 724.80 L 201.40 722.00 L 194.70 714.10 L 193.00 711.40 L 195.00 700.80 L 197.50 690.30 Z" fill="#a9b176" fill-rule="nonzero" node-id="224" stroke="none" target-height="62.200012" target-width="36.600006" target-x="193" target-y="690.3"></path><path d="M 799.30 693.90 L 809.70 691.90 L 795.50 713.30 L 790.50 720.20 L 783.10 728.80 L 772.10 740.10 L 765.60 747.90 L 764.00 744.30 L 767.60 727.60 L 768.90 719.10 L 769.70 710.60 L 784.00 701.40 L 791.50 697.30 L 799.30 693.90 Z" fill="#c7bd77" fill-rule="nonzero" node-id="226" stroke="none" target-height="56" target-width="45.700012" target-x="764" target-y="691.9"></path><path d="M 734.90 699.40 L 751.70 701.80 L 752.00 708.40 L 751.80 715.10 L 751.20 721.70 L 750.00 728.30 L 748.40 734.80 L 746.40 741.20 L 743.90 747.40 L 741.00 753.50 L 737.70 759.40 L 734.10 765.00 L 730.10 770.30 L 725.70 775.40 L 721.00 780.10 L 716.00 784.50 L 710.70 788.40 L 705.10 791.90 L 699.30 795.00 L 693.10 797.50 L 686.80 799.50 L 680.10 801.00 L 683.20 779.60 L 686.80 758.20 L 692.80 755.40 L 698.40 752.10 L 703.70 748.30 L 708.70 744.00 L 713.30 739.40 L 717.60 734.40 L 721.50 729.10 L 725.00 723.50 L 728.10 717.70 L 730.80 711.70 L 733.10 705.60 L 734.90 699.40 Z" fill="#eda153" fill-rule="nonzero" node-id="228" stroke="none" target-height="101.599976" target-width="71.900024" target-x="680.1" target-y="699.4"></path><path d="M 184.70 735.90 L 184.80 733.50 L 185.20 731.70 L 186.00 730.40 L 188.50 728.70 L 190.10 728.20 L 192.70 728.10 L 195.60 728.60 L 198.40 729.50 L 201.10 730.80 L 203.40 732.40 L 216.30 745.10 L 220.20 748.30 L 223.10 750.10 L 226.20 751.50 L 229.60 752.50 L 222.20 754.20 L 214.80 756.30 L 207.60 758.90 L 191.30 746.00 L 187.00 740.90 L 184.70 735.90 Z" fill="#8aac7c" fill-rule="nonzero" node-id="230" stroke="none" target-height="30.800049" target-width="44.90001" target-x="184.7" target-y="728.1"></path><path d="M 765.60 747.90 L 772.10 740.10 L 779.00 732.80 L 780.30 735.80 L 781.80 738.30 L 783.60 740.40 L 788.00 743.70 L 794.50 746.80 L 807.10 751.30 L 811.10 753.20 L 814.70 755.60 L 814.60 760.20 L 809.20 759.50 L 803.60 759.30 L 786.70 759.60 L 781.10 759.40 L 775.70 758.80 L 770.30 757.70 L 766.90 756.50 L 760.20 753.00 L 764.00 744.30 L 765.60 747.90 Z" fill="#b0b46f" fill-rule="nonzero" node-id="232" stroke="none" target-height="27.400024" target-width="54.5" target-x="760.2" target-y="732.8"></path><path d="M 252.60 746.90 L 261.60 745.10 L 263.30 752.40 L 265.50 759.60 L 268.10 766.60 L 271.20 773.50 L 229.60 777.20 L 206.50 778.50 L 188.00 778.30 L 178.80 777.70 L 169.60 776.50 L 160.40 774.90 L 163.70 772.10 L 167.20 769.80 L 170.90 768.00 L 176.80 766.00 L 182.90 764.50 L 201.70 760.80 L 214.80 756.30 L 222.20 754.20 L 252.60 746.90 Z" fill="#618478" fill-rule="nonzero" node-id="234" stroke="none" target-height="33.400024" target-width="110.80002" target-x="160.4" target-y="745.1"></path><path d="M 755.20 764.30 L 760.20 753.00 L 763.50 755.00 L 766.90 756.50 L 770.30 757.70 L 775.70 758.80 L 781.10 759.40 L 786.70 759.60 L 803.60 759.30 L 809.20 759.50 L 814.60 760.20 L 819.90 761.70 L 842.80 767.10 L 848.20 769.00 L 851.60 770.60 L 857.80 774.60 L 860.50 777.10 L 862.90 780.10 L 865.10 783.60 L 863.30 786.70 L 861.40 789.30 L 859.10 791.60 L 853.90 795.40 L 846.50 799.00 L 832.30 803.50 L 816.10 807.30 L 799.90 810.70 L 783.60 813.70 L 759.00 817.60 L 734.40 820.90 L 684.80 826.20 L 635.30 830.70 L 642.80 829.40 L 650.20 827.40 L 659.60 823.70 L 667.10 819.80 L 673.10 817.70 L 677.80 816.70 L 692.20 814.30 L 696.90 813.30 L 705.60 810.20 L 713.30 806.20 L 729.60 795.30 L 735.10 792.00 L 740.30 791.50 L 761.00 791.10 L 769.50 789.80 L 776.00 787.30 L 771.20 785.00 L 761.30 781.50 L 753.60 779.60 L 745.80 778.20 L 755.00 764.80 L 778.10 769.90 L 789.80 772.00 L 801.50 773.60 L 813.30 774.90 L 825.10 775.80 L 789.90 771.00 L 778.30 769.10 L 755.20 764.30 Z" fill="#88a593" fill-rule="nonzero" node-id="236" stroke="none" target-height="77.70001" target-width="229.79999" target-x="635.3" target-y="753"></path><path d="M 158.90 774.70 L 169.60 776.50 L 178.80 777.70 L 188.00 778.30 L 206.50 778.50 L 229.60 777.20 L 271.20 773.50 L 277.30 781.80 L 283.80 789.80 L 268.40 790.60 L 263.30 791.30 L 256.90 793.30 L 253.70 794.80 L 260.60 797.00 L 267.60 798.50 L 295.90 803.10 L 302.80 804.80 L 319.60 810.30 L 329.70 813.00 L 339.90 815.10 L 360.60 818.00 L 373.90 819.20 L 376.60 819.90 L 379.10 821.00 L 382.80 823.10 L 393.20 830.50 L 373.70 829.60 L 334.60 826.60 L 315.10 824.50 L 289.20 821.30 L 263.30 817.40 L 237.60 812.90 L 215.80 808.00 L 204.90 805.30 L 187.10 800.10 L 173.10 794.80 L 166.90 791.70 L 164.00 789.60 L 161.50 787.30 L 159.00 783.70 L 158.30 781.70 L 158.00 779.60 L 158.20 777.30 L 158.90 774.70 Z" fill="#89aa94" fill-rule="nonzero" node-id="238" stroke="none" target-height="57" target-width="235.20001" target-x="158" target-y="773.5"></path><path d="M 518.90 825.90 L 534.70 825.60 L 550.50 824.80 L 585.20 822.40 L 588.30 822.60 L 595.70 824.40 L 608.50 829.60 L 602.50 830.60 L 596.50 831.10 L 590.50 831.20 L 566.20 830.10 L 489.90 830.30 L 472.40 830.10 L 454.90 829.30 L 461.90 828.20 L 476.10 826.90 L 518.90 825.90 Z" fill="#a7acad" fill-rule="nonzero" node-id="240" stroke="none" target-height="8.799988" target-width="153.6" target-x="454.9" target-y="822.4"></path><path d="M 446.80 867.30 L 450.20 869.50 L 454.20 872.80 L 456.00 874.70 L 457.80 877.70 L 457.50 879.70 L 456.80 880.40 L 455.60 881.10 L 453.30 881.60 L 454.70 899.30 L 448.50 898.40 L 448.70 887.00 L 448.40 884.20 L 447.60 881.70 L 446.70 880.30 L 445.50 879.00 L 443.70 877.80 L 449.10 876.10 L 446.80 867.30 Z" fill="#221109" fill-rule="nonzero" node-id="242" stroke="none" target-height="32" target-width="14.099976" target-x="443.7" target-y="867.3"></path><path d="M 464.70 877.40 L 469.90 876.60 L 470.50 899.00 L 464.00 898.80 L 464.70 877.40 Z" fill="#221116" fill-rule="nonzero" node-id="244" stroke="none" target-height="22.400024" target-width="6.5" target-x="464" target-y="876.6"></path><path d="M 495.80 876.30 L 497.20 877.50 L 500.00 878.70 L 502.20 878.80 L 511.50 877.10 L 515.00 877.70 L 516.30 878.50 L 519.30 881.90 L 520.70 884.60 L 521.50 887.50 L 521.80 890.50 L 521.60 893.50 L 520.70 896.30 L 518.60 899.40 L 517.00 900.60 L 516.30 888.30 L 515.70 885.30 L 514.70 882.40 L 512.40 881.70 L 510.10 881.60 L 507.80 881.80 L 500.90 883.50 L 500.90 898.70 L 495.30 898.70 L 495.20 887.50 L 495.80 876.30 Z" fill="#170607" fill-rule="nonzero" node-id="246" stroke="none" target-height="24.299988" target-width="26.599976" target-x="495.2" target-y="876.3"></path></svg>